<?xml version='1.0' encoding='utf-8'?>
<svg xmlns="http://www.w3.org/2000/svg" width="350.66101mm" height="394.22998mm" viewBox="0 0 350.66101 394.22998" version="1.1" id="svg5" xml:space="preserve"><defs id="defs2" /><g id="layer1"><path style="fill:#000000" d="m 205.67000000000007 393.6679000000004 c -5.786,-1.042 -12.385,-1.207 -22.931,-0.572 -14.483,0.872 -18.534,0.707 -22.287,-0.908 -1.958,-0.842 -3.918,-2.846 -4.466,-4.567 -0.209,-0.656 -0.529,-2.597 -0.711,-4.313 -0.182,-1.716 -0.5,-3.29 -0.707,-3.497 -0.268,-0.267 -0.833,0.04 -1.943,1.067 -3.714,3.423 -5.504,3.752 -23.556,4.329 -17.092,0.547 -17.075,0.549 -24.823,-3.353 -7.676,-3.866 -10.026,-4.515 -16.404,-4.527 -5.897,-0.01 -6.509,0.131 -20.942,4.893 -11.814,3.899 -21.254,6.409 -28.182,7.496 -2.28,0.358 -4.146,0.616 -4.146,0.573 0,-0.04 0.947,-0.769 2.104,-1.616 2.241,-1.64 3.061,-2.736 2.717,-3.632 -0.327,-0.853 -1.568,-0.72 -14.346,1.537 -10.1,1.784 -16.379,2.784 -23.547,3.748 -0.825,0.111 -1.5,0.127 -1.5,0.03 0,-0.09 1.151,-0.604 2.558,-1.137 12.345,-4.684 25.601,-11.145 34.408,-16.771 17.639,-11.27 31.828,-27.315 35.841,-40.529 0.529,-1.739 1.506,-7.148 2.328,-12.877 1.455,-10.141 1.605,-11.104 4.591,-29.457 11.68,-71.799 24.476,-114.324 44.794,-148.872 8.717,-14.821 16.704,-25.002 31.456,-40.096 4.838,-4.951 9.613,-9.98 10.61,-11.175 4.472,-5.364 6.428,-9.305 10.837,-21.832 3.759,-10.682 5.558,-15.427 8.102,-21.365 12.949,-30.226 27.564,-43.17 51.895,-45.961 5.051,-0.58 14.671,-0.232 18.973,0.686 7.353,1.568 10.327,2.883 20.998,9.283 15.686,9.408 19.175,10.614 39.051,13.5 14.224,2.066 18.542,3.086 23.283,5.501 4.691,2.389 8.128,5.606 10.025,9.381 0.501,0.999 0.911,1.874 0.911,1.946 0,0.07 -8.67,0.07 -19.267,0 -29.326,-0.205 -31.554,0.128 -47.408,7.074 -10.006,4.384 -20.823,9.734 -24.059,11.898 -5.089,3.403 -7.313,6.264 -7.33,9.425 -0.01,1.883 0.907,4.841 3.866,12.473 1.316,3.395 2.973,7.974 3.682,10.174 4.213,13.08 8.828,37.833 10.071,54.013 0.835,10.862 0.212,20.823 -2.472,39.529 -1.308,9.116 -4.813,25.909 -7.916,37.924 -6.671,25.833 -14.599,47.686 -24.701,68.086 -6.345,12.814 -10.357,19.654 -17.529,29.885 -6.925,9.88 -11.864,15.45 -22.142,24.97 -7.436,6.889 -9.192,10.51 -10.24,21.118 -0.521,5.277 -0.48,6.316 0.257,6.545 0.34,0.106 6.729,1.063 14.199,2.127 17.218,2.452 20.101,3.019 25.319,4.983 4.58,1.724 10.206,6.18 9.892,7.835 -0.219,1.156 -3.945,0.798 -8.576,-0.825 -0.388,-0.136 0.06,0.449 0.995,1.299 1.586,1.443 1.664,1.593 1.173,2.252 -0.849,1.138 -3.832,0.863 -9.152,-0.844 -4.264,-1.369 -7.656,-1.863 -7.656,-1.115 0,0.183 0.957,0.682 2.127,1.109 1.171,0.427 2.222,0.928 2.337,1.115 0.116,0.186 -0.269,0.818 -0.855,1.404 -0.944,0.944 -1.342,1.079 -3.484,1.183 -1.371,0.07 -4.022,-0.172 -6.122,-0.551 z m -72.13,-21.437 c 5.434,-2.606 8.088,-3.479 11.9,-3.913 l 2.198,-0.251 -1.711,-1.016 c -4.2,-2.494 -10.785,-3.999 -18.927,-4.326 -9.713,-0.389 -18.589,1.124 -24.348,4.152 l -1.581,0.831 2.96,0.257 c 3.821,0.331 6.686,1.22 11.881,3.685 8.907,4.227 9.954,4.261 17.628,0.581 z m 44.596,-19.67 c 9.576,-26.005 12.627,-32.168 19.232,-38.849 4.14,-4.187 6.82,-5.315 7.858,-3.308 0.646,1.248 0.274,3.625 -1.355,8.674 -1.598,4.952 -1.691,5.79 -0.64,5.79 2.857,0 15.603,-19.337 24.7,-37.472 15.134,-30.173 28.546,-70.429 33.822,-101.522 1.751,-10.318 2.263,-16.634 2.262,-27.87 0,-14.026 -0.974,-24.056 -4.24,-43.744 -2.165,-13.056 -3.481,-16.851 -6.911,-19.935 -3.908,-3.514 -10.824,-4.451 -20.736,-2.811 -10.128,1.676 -20.271,7.591 -25.016,14.59 -4.386,6.467 -5.007,10.387 -3.401,21.44 0.475,3.268 0.97,7.371 1.101,9.117 0.63,8.418 -2.227,19.068 -9.558,35.635 -3.41,7.707 -6.352,12.125 -9.173,13.778 -1.866,1.094 -2.847,1.014 -3.833,-0.311 -1.943,-2.612 0.325,-10.703 5.551,-19.803 1.106,-1.926 1.968,-3.626 1.915,-3.778 -0.22,-0.637 -3.446,1.461 -5.78,3.759 -5.606,5.52 -7.415,11.974 -8.253,29.458 -1.048,21.856 -2.613,36.019 -5.651,51.153 -5.956,29.659 -17.576,52.44 -32.473,63.662 -8.112,6.11 -15.931,9.432 -23.453,9.963 -6.287,0.443 -9.694,-1.781 -9.673,-6.316 0.01,-2.5 1.066,-4.936 4.096,-9.454 10.049,-14.989 15.626,-29.675 16.544,-43.568 0.15,-2.268 0.717,-5.418 1.588,-8.819 2.304,-9.003 2.613,-11.061 2.589,-17.287 -0.02,-6.311 -0.751,-10.668 -3.154,-18.89 -1.962,-6.71 -2.222,-7.749 -2.585,-10.31 -0.711,-5.021 0.609,-9.256 5.632,-18.075 3.554,-6.24 7.536,-14.006 9.403,-18.341 1.643,-3.814 4.014,-10.137 3.859,-10.291 -0.07,-0.07 -1.221,1.813 -2.56,4.181 -3.959,7 -7.797,12.155 -15.268,20.508 -4.428,4.95 -5.78,6.765 -7.132,9.575 -2.464,5.124 -2.611,9.82 -0.716,22.946 2.25,15.588 2.721,26.263 1.64,37.218 -1.656,16.798 -5.599,29.327 -14.428,45.851 -4.576,8.566 -5.281,10.556 -5.312,15.003 -0.02,2.968 0.103,3.809 0.785,5.292 2.393,5.208 7.92,7.583 15.923,6.845 7.653,-0.706 15.874,-4.48 22.86,-10.492 1.389,-1.196 2.596,-2.174 2.683,-2.174 0.09,0 1.661,1.866 3.498,4.145 1.837,2.28 5.119,6.209 7.293,8.732 6.583,7.636 8.582,11.101 10.075,17.462 0.8,3.412 2.798,7.667 5.006,10.663 2.436,3.307 7.215,8.492 7.507,8.146 0.133,-0.159 1.879,-4.733 3.879,-10.166 z m 70.711,-274.49 c 1.253,-3.266 -2.132,-7.792 -11.419,-15.264 -9.578,-7.708 -11.261,-10.094 -12.551,-17.787 -0.862,-5.14 -1.738,-7.408 -3.683,-9.537 -3.421,-3.742 -8.43,-5.076 -12.831,-3.415 -6.233,2.353 -10.822,11.81 -10.353,21.338 0.295,5.97 1.927,9.388 5.728,11.987 2.739,1.875 5.644,2.786 18.042,5.659 11.416,2.645 19.469,4.87 23.401,6.467 3.087,1.253 3.38,1.297 3.666,0.552 z m 96.503,-39.498 c -2.903,-2.146 -7.519,-3.717 -10.726,-3.652 -2.012,0.04 -2.072,0.02 3.337,1.358 1.65,0.409 4.11,1.282 5.468,1.94 2.989,1.447 3.537,1.548 1.921,0.354 z m -28.908,-3.865 c 3.395,-0.283 6.491,-0.525 6.879,-0.538 1.001,-0.03 -1.984,-1.538 -5.183,-2.611 -7.056,-2.369 -19.888,-3.345 -28.705,-2.184 -4.344,0.573 -6.505,1.117 -6.505,1.638 0,0.965 7.12,3.303 11.662,3.829 4.225,0.489 15.18,0.422 21.852,-0.134 z m -54.517,-7.929 c 1.786,-1.104 2.517,-2.81 1.799,-4.198 -1.043,-2.016 -4.732,-2.763 -8.004,-1.621 -2.417,0.844 -5.303,2.963 -5.177,3.802 0.406,2.703 8.074,4.061 11.382,2.017 z" id="path101" /></g></svg>